<svg aria-roledescription="er" viewBox="0 0 775.7174072265625 1000" style="max-width: 775.717px; background-color: white;" xmlns:xlink="http://www.w3.org/1999/xlink" xmlns="http://www.w3.org/2000/svg" width="100%" id="mermaid-0"><style>#mermaid-0{font-family:"trebuchet ms",verdana,arial,sans-serif;font-size:16px;fill:#000000;}#mermaid-0 .error-icon{fill:#552222;}#mermaid-0 .error-text{fill:#552222;stroke:#552222;}#mermaid-0 .edge-thickness-normal{stroke-width:2px;}#mermaid-0 .edge-thickness-thick{stroke-width:3.5px;}#mermaid-0 .edge-pattern-solid{stroke-dasharray:0;}#mermaid-0 .edge-pattern-dashed{stroke-dasharray:3;}#mermaid-0 .edge-pattern-dotted{stroke-dasharray:2;}#mermaid-0 .marker{fill:#000000;stroke:#000000;}#mermaid-0 .marker.cross{stroke:#000000;}#mermaid-0 svg{font-family:"trebuchet ms",verdana,arial,sans-serif;font-size:16px;}#mermaid-0 .entityBox{fill:#cde498;stroke:#13540c;}#mermaid-0 .attributeBoxOdd{fill:#ffffff;stroke:#13540c;}#mermaid-0 .attributeBoxEven{fill:#f2f2f2;stroke:#13540c;}#mermaid-0 .relationshipLabelBox{fill:hsl(78.1578947368, 58.4615384615%, 84.5098039216%);opacity:0.7;background-color:hsl(78.1578947368, 58.4615384615%, 84.5098039216%);}#mermaid-0 .relationshipLabelBox rect{opacity:0.5;}#mermaid-0 .relationshipLine{stroke:#000000;}#mermaid-0 .entityTitleText{text-anchor:middle;font-size:18px;fill:#000000;}#mermaid-0 :root{--mermaid-font-family:"trebuchet ms",verdana,arial,sans-serif;}</style><g/><defs><marker orient="auto" markerHeight="18" markerWidth="18" refY="9" refX="0" id="ONLY_ONE_START"><path d="M9,0 L9,18 M15,0 L15,18" fill="none" stroke="gray"/></marker></defs><defs><marker orient="auto" markerHeight="18" markerWidth="18" refY="9" refX="18" id="ONLY_ONE_END"><path d="M3,0 L3,18 M9,0 L9,18" fill="none" stroke="gray"/></marker></defs><defs><marker orient="auto" markerHeight="18" markerWidth="30" refY="9" refX="0" id="ZERO_OR_ONE_START"><circle r="6" cy="9" cx="21" fill="white" stroke="gray"/><path d="M9,0 L9,18" fill="none" stroke="gray"/></marker></defs><defs><marker orient="auto" markerHeight="18" markerWidth="30" refY="9" refX="30" id="ZERO_OR_ONE_END"><circle r="6" cy="9" cx="9" fill="white" stroke="gray"/><path d="M21,0 L21,18" fill="none" stroke="gray"/></marker></defs><defs><marker orient="auto" markerHeight="36" markerWidth="45" refY="18" refX="18" id="ONE_OR_MORE_START"><path d="M0,18 Q 18,0 36,18 Q 18,36 0,18 M42,9 L42,27" fill="none" stroke="gray"/></marker></defs><defs><marker orient="auto" markerHeight="36" markerWidth="45" refY="18" refX="27" id="ONE_OR_MORE_END"><path d="M3,9 L3,27 M9,18 Q27,0 45,18 Q27,36 9,18" fill="none" stroke="gray"/></marker></defs><defs><marker orient="auto" markerHeight="36" markerWidth="57" refY="18" refX="18" id="ZERO_OR_MORE_START"><circle r="6" cy="18" cx="48" fill="white" stroke="gray"/><path d="M0,18 Q18,0 36,18 Q18,36 0,18" fill="none" stroke="gray"/></marker></defs><defs><marker orient="auto" markerHeight="36" markerWidth="57" refY="18" refX="39" id="ZERO_OR_MORE_END"><circle r="6" cy="18" cx="9" fill="white" stroke="gray"/><path d="M21,18 Q39,0 57,18 Q39,36 21,18" fill="none" stroke="gray"/></marker></defs><path style="stroke: gray; fill: none;" marker-start="url(#ZERO_OR_ONE_START)" marker-end="url(#ONLY_ONE_END)" d="M223.5735626220703,746L223.5735626220703,758C223.5735626220703,770,223.5735626220703,794,223.5735626220703,814.3333333333334C223.5735626220703,834.6666666666666,223.5735626220703,851.3333333333334,223.5735626220703,859.6666666666666L223.5735626220703,868" class="er relationshipLine"/><path style="stroke: gray; fill: none;" marker-start="url(#ZERO_OR_ONE_START)" marker-end="url(#ONLY_ONE_END)" d="M96.78678131103516,578L96.78678131103516,586.3333333333334C96.78678131103516,594.6666666666666,96.78678131103516,611.3333333333334,112.8019536871659,631.6666666666666C128.81712606329668,652,160.84747081555818,676,176.86264319168893,688L192.8778155678197,700" class="er relationshipLine"/><path style="stroke: gray; fill: none;" marker-start="url(#ZERO_OR_ONE_START)" marker-end="url(#ONLY_ONE_END)" d="M350.36034393310547,578L350.36034393310547,586.3333333333334C350.36034393310547,594.6666666666666,350.36034393310547,611.3333333333334,334.3451715569747,631.6666666666666C318.32999918084397,652,286.2996544285824,676,270.28448205245166,688L254.26930967632092,700" class="er relationshipLine"/><path style="stroke: gray; fill: none;" marker-start="url(#ZERO_OR_MORE_START)" marker-end="url(#ONLY_ONE_END)" d="M453.2027244567871,354.17550833988724L436.06232770284015,368.14625694990605C418.92193094889325,382.11700555992485,384.64113744099933,410.05850277996245,367.5007406870524,432.3625847233145C350.36034393310547,454.6666666666667,350.36034393310547,471.3333333333333,350.36034393310547,479.6666666666667L350.36034393310547,488" class="er relationshipLine"/><path style="stroke: gray; fill: none;" marker-start="url(#ZERO_OR_MORE_START)" marker-end="url(#ONLY_ONE_END)" d="M524.8986315281271,388L525.273380480796,396.3333333333333C525.648129433465,404.6666666666667,526.3976273388029,421.3333333333333,526.7723762914717,445.5C527.1471252441406,469.6666666666667,527.1471252441406,501.3333333333333,527.1471252441406,533C527.1471252441406,564.6666666666666,527.1471252441406,596.3333333333334,534.3526145533511,620.5C541.5581038625617,644.6666666666666,555.9690824809827,661.3333333333334,563.1745717901932,669.6666666666666L570.3800610994037,678" class="er relationshipLine"/><path style="stroke: gray; fill: none;" marker-start="url(#ZERO_OR_MORE_START)" marker-end="url(#ONLY_ONE_END)" d="M588.589900970459,354.17550833988724L605.7302977244059,368.14625694990605C622.8706944783529,382.11700555992485,657.1514879862467,410.05850277996245,674.2918847401937,432.3625847233145C691.4322814941406,454.6666666666667,691.4322814941406,471.3333333333333,691.4322814941406,479.6666666666667L691.4322814941406,488" class="er relationshipLine"/><path style="stroke: gray; fill: none;" marker-start="url(#ZERO_OR_MORE_START)" marker-end="url(#ONLY_ONE_END)" d="M691.4322814941406,578L691.4322814941406,586.3333333333334C691.4322814941406,594.6666666666666,691.4322814941406,611.3333333333334,684.2267921849301,628C677.0213028757196,644.6666666666666,662.6103242572985,661.3333333333334,655.404834948088,669.6666666666666L648.1993456388775,678" class="er relationshipLine"/><path style="stroke: gray; fill: none;" marker-start="url(#ZERO_OR_MORE_START)" marker-end="url(#ONLY_ONE_END)" d="M228.1232032775879,102.01621844245989L206.23379961649576,111.68018203538323C184.34439595540366,121.34414562830659,140.5655886332194,140.6720728141533,118.67618497212727,173.5027030737433C96.78678131103516,206.33333333333334,96.78678131103516,252.66666666666666,96.78678131103516,299C96.78678131103516,345.3333333333333,96.78678131103516,391.6666666666667,96.78678131103516,423.1666666666667C96.78678131103516,454.6666666666667,96.78678131103516,471.3333333333333,96.78678131103516,479.6666666666667L96.78678131103516,488" class="er relationshipLine"/><path style="stroke: gray; fill: none;" marker-start="url(#ZERO_OR_MORE_START)" marker-end="url(#ONLY_ONE_END)" d="M395.8107032775879,103.12368099677525L416.65830485026044,112.6030674973127C437.5059064229329,122.08245399785017,479.201109568278,141.04122699892508,500.0487111409505,158.85394683279586C520.896312713623,176.66666666666666,520.896312713623,193.33333333333334,520.896312713623,201.66666666666666L520.896312713623,210" class="er relationshipLine"/><g transform="translate(143.76168060302734,868 )" id="entity-User-ca5e541e-7c12-4fb0-a65d-20ba41dfcfa6"><rect height="112" width="159.62376403808594" y="0" x="0" class="er entityBox"/><text style="dominant-baseline: middle; text-anchor: middle; font-size: 12px;" transform="translate(79.81188201904297,12)" y="0" x="0" id="text-entity-User-ca5e541e-7c12-4fb0-a65d-20ba41dfcfa6" class="er entityLabel">User</text><rect height="22" width="37.39605712890625" y="24" x="0" class="er attributeBoxOdd"/><text style="dominant-baseline: middle; font-size: 10.2px;" transform="translate(5,35)" y="0" x="0" id="text-entity-User-ca5e541e-7c12-4fb0-a65d-20ba41dfcfa6-attr-1-type" class="er entityLabel">String</text><rect height="22" width="52.327484130859375" y="24" x="37.39605712890625" class="er attributeBoxOdd"/><text style="dominant-baseline: middle; font-size: 10.2px;" transform="translate(42.39605712890625,35)" y="0" x="0" id="text-entity-User-ca5e541e-7c12-4fb0-a65d-20ba41dfcfa6-attr-1-name" class="er entityLabel">id</text><rect height="22" width="22.68768310546875" y="24" x="89.72354125976562" class="er attributeBoxOdd"/><text style="dominant-baseline: middle; font-size: 10.2px;" transform="translate(94.72354125976562,35)" y="0" x="0" id="text-entity-User-ca5e541e-7c12-4fb0-a65d-20ba41dfcfa6-attr-1-key" class="er entityLabel">PK</text><rect height="22" width="47.21253967285156" y="24" x="112.41122436523438" class="er attributeBoxOdd"/><text style="dominant-baseline: middle; font-size: 10.2px;" transform="translate(117.41122436523438,35)" y="0" x="0" id="text-entity-User-ca5e541e-7c12-4fb0-a65d-20ba41dfcfa6-attr-1-comment" class="er entityLabel"/><rect height="22" width="37.39605712890625" y="46" x="0" class="er attributeBoxEven"/><text style="dominant-baseline: middle; font-size: 10.2px;" transform="translate(5,57)" y="0" x="0" id="text-entity-User-ca5e541e-7c12-4fb0-a65d-20ba41dfcfa6-attr-2-type" class="er entityLabel">String</text><rect height="22" width="52.327484130859375" y="46" x="37.39605712890625" class="er attributeBoxEven"/><text style="dominant-baseline: middle; font-size: 10.2px;" transform="translate(42.39605712890625,57)" y="0" x="0" id="text-entity-User-ca5e541e-7c12-4fb0-a65d-20ba41dfcfa6-attr-2-name" class="er entityLabel">email</text><rect height="22" width="22.68768310546875" y="46" x="89.72354125976562" class="er attributeBoxEven"/><text style="dominant-baseline: middle; font-size: 10.2px;" transform="translate(94.72354125976562,57)" y="0" x="0" id="text-entity-User-ca5e541e-7c12-4fb0-a65d-20ba41dfcfa6-attr-2-key" class="er entityLabel"/><rect height="22" width="47.21253967285156" y="46" x="112.41122436523438" class="er attributeBoxEven"/><text style="dominant-baseline: middle; font-size: 10.2px;" transform="translate(117.41122436523438,57)" y="0" x="0" id="text-entity-User-ca5e541e-7c12-4fb0-a65d-20ba41dfcfa6-attr-2-comment" class="er entityLabel"/><rect height="22" width="37.39605712890625" y="68" x="0" class="er attributeBoxOdd"/><text style="dominant-baseline: middle; font-size: 10.2px;" transform="translate(5,79)" y="0" x="0" id="text-entity-User-ca5e541e-7c12-4fb0-a65d-20ba41dfcfa6-attr-3-type" class="er entityLabel">String</text><rect height="22" width="52.327484130859375" y="68" x="37.39605712890625" class="er attributeBoxOdd"/><text style="dominant-baseline: middle; font-size: 10.2px;" transform="translate(42.39605712890625,79)" y="0" x="0" id="text-entity-User-ca5e541e-7c12-4fb0-a65d-20ba41dfcfa6-attr-3-name" class="er entityLabel">password</text><rect height="22" width="22.68768310546875" y="68" x="89.72354125976562" class="er attributeBoxOdd"/><text style="dominant-baseline: middle; font-size: 10.2px;" transform="translate(94.72354125976562,79)" y="0" x="0" id="text-entity-User-ca5e541e-7c12-4fb0-a65d-20ba41dfcfa6-attr-3-key" class="er entityLabel"/><rect height="22" width="47.21253967285156" y="68" x="112.41122436523438" class="er attributeBoxOdd"/><text style="dominant-baseline: middle; font-size: 10.2px;" transform="translate(117.41122436523438,79)" y="0" x="0" id="text-entity-User-ca5e541e-7c12-4fb0-a65d-20ba41dfcfa6-attr-3-comment" class="er entityLabel"/><rect height="22" width="37.39605712890625" y="90" x="0" class="er attributeBoxEven"/><text style="dominant-baseline: middle; font-size: 10.2px;" transform="translate(5,101)" y="0" x="0" id="text-entity-User-ca5e541e-7c12-4fb0-a65d-20ba41dfcfa6-attr-4-type" class="er entityLabel">String</text><rect height="22" width="52.327484130859375" y="90" x="37.39605712890625" class="er attributeBoxEven"/><text style="dominant-baseline: middle; font-size: 10.2px;" transform="translate(42.39605712890625,101)" y="0" x="0" id="text-entity-User-ca5e541e-7c12-4fb0-a65d-20ba41dfcfa6-attr-4-name" class="er entityLabel">name</text><rect height="22" width="22.68768310546875" y="90" x="89.72354125976562" class="er attributeBoxEven"/><text style="dominant-baseline: middle; font-size: 10.2px;" transform="translate(94.72354125976562,101)" y="0" x="0" id="text-entity-User-ca5e541e-7c12-4fb0-a65d-20ba41dfcfa6-attr-4-key" class="er entityLabel"/><rect height="22" width="47.21253967285156" y="90" x="112.41122436523438" class="er attributeBoxEven"/><text style="dominant-baseline: middle; font-size: 10.2px;" transform="translate(117.41122436523438,101)" y="0" x="0" id="text-entity-User-ca5e541e-7c12-4fb0-a65d-20ba41dfcfa6-attr-4-comment" class="er entityLabel">nullable</text></g><g transform="translate(173.5735626220703,700 )" id="entity-Profile-f1bcf23f-5344-46d1-b480-0ea0cd9f814d"><rect height="46" width="100" y="0" x="0" class="er entityBox"/><text style="dominant-baseline: middle; text-anchor: middle; font-size: 12px;" transform="translate(50,12)" y="0" x="0" id="text-entity-Profile-f1bcf23f-5344-46d1-b480-0ea0cd9f814d" class="er entityLabel">Profile</text><rect height="22" width="44.39861551920573" y="24" x="0" class="er attributeBoxOdd"/><text style="dominant-baseline: middle; font-size: 10.2px;" transform="translate(5,35)" y="0" x="0" id="text-entity-Profile-f1bcf23f-5344-46d1-b480-0ea0cd9f814d-attr-1-type" class="er entityLabel">String</text><rect height="22" width="25.911142985026043" y="24" x="44.39861551920573" class="er attributeBoxOdd"/><text style="dominant-baseline: middle; font-size: 10.2px;" transform="translate(49.39861551920573,35)" y="0" x="0" id="text-entity-Profile-f1bcf23f-5344-46d1-b480-0ea0cd9f814d-attr-1-name" class="er entityLabel">id</text><rect height="22" width="29.69024149576823" y="24" x="70.30975850423177" class="er attributeBoxOdd"/><text style="dominant-baseline: middle; font-size: 10.2px;" transform="translate(75.30975850423177,35)" y="0" x="0" id="text-entity-Profile-f1bcf23f-5344-46d1-b480-0ea0cd9f814d-attr-1-key" class="er entityLabel">PK</text></g><g transform="translate(20,488 )" id="entity-ClientProfile-4191ae72-4234-4591-b3e5-84980c90917f"><rect height="90" width="153.5735626220703" y="0" x="0" class="er entityBox"/><text style="dominant-baseline: middle; text-anchor: middle; font-size: 12px;" transform="translate(76.78678131103516,12)" y="0" x="0" id="text-entity-ClientProfile-4191ae72-4234-4591-b3e5-84980c90917f" class="er entityLabel">ClientProfile</text><rect height="22" width="37.39605712890625" y="24" x="0" class="er attributeBoxOdd"/><text style="dominant-baseline: middle; font-size: 10.2px;" transform="translate(5,35)" y="0" x="0" id="text-entity-ClientProfile-4191ae72-4234-4591-b3e5-84980c90917f-attr-1-type" class="er entityLabel">String</text><rect height="22" width="46.27728271484375" y="24" x="37.39605712890625" class="er attributeBoxOdd"/><text style="dominant-baseline: middle; font-size: 10.2px;" transform="translate(42.39605712890625,35)" y="0" x="0" id="text-entity-ClientProfile-4191ae72-4234-4591-b3e5-84980c90917f-attr-1-name" class="er entityLabel">id</text><rect height="22" width="22.68768310546875" y="24" x="83.67333984375" class="er attributeBoxOdd"/><text style="dominant-baseline: middle; font-size: 10.2px;" transform="translate(88.67333984375,35)" y="0" x="0" id="text-entity-ClientProfile-4191ae72-4234-4591-b3e5-84980c90917f-attr-1-key" class="er entityLabel">PK</text><rect height="22" width="47.21253967285156" y="24" x="106.36102294921875" class="er attributeBoxOdd"/><text style="dominant-baseline: middle; font-size: 10.2px;" transform="translate(111.36102294921875,35)" y="0" x="0" id="text-entity-ClientProfile-4191ae72-4234-4591-b3e5-84980c90917f-attr-1-comment" class="er entityLabel"/><rect height="22" width="37.39605712890625" y="46" x="0" class="er attributeBoxEven"/><text style="dominant-baseline: middle; font-size: 10.2px;" transform="translate(5,57)" y="0" x="0" id="text-entity-ClientProfile-4191ae72-4234-4591-b3e5-84980c90917f-attr-2-type" class="er entityLabel">String</text><rect height="22" width="46.27728271484375" y="46" x="37.39605712890625" class="er attributeBoxEven"/><text style="dominant-baseline: middle; font-size: 10.2px;" transform="translate(42.39605712890625,57)" y="0" x="0" id="text-entity-ClientProfile-4191ae72-4234-4591-b3e5-84980c90917f-attr-2-name" class="er entityLabel">content</text><rect height="22" width="22.68768310546875" y="46" x="83.67333984375" class="er attributeBoxEven"/><text style="dominant-baseline: middle; font-size: 10.2px;" transform="translate(88.67333984375,57)" y="0" x="0" id="text-entity-ClientProfile-4191ae72-4234-4591-b3e5-84980c90917f-attr-2-key" class="er entityLabel"/><rect height="22" width="47.21253967285156" y="46" x="106.36102294921875" class="er attributeBoxEven"/><text style="dominant-baseline: middle; font-size: 10.2px;" transform="translate(111.36102294921875,57)" y="0" x="0" id="text-entity-ClientProfile-4191ae72-4234-4591-b3e5-84980c90917f-attr-2-comment" class="er entityLabel">nullable</text><rect height="22" width="37.39605712890625" y="68" x="0" class="er attributeBoxOdd"/><text style="dominant-baseline: middle; font-size: 10.2px;" transform="translate(5,79)" y="0" x="0" id="text-entity-ClientProfile-4191ae72-4234-4591-b3e5-84980c90917f-attr-3-type" class="er entityLabel">Json</text><rect height="22" width="46.27728271484375" y="68" x="37.39605712890625" class="er attributeBoxOdd"/><text style="dominant-baseline: middle; font-size: 10.2px;" transform="translate(42.39605712890625,79)" y="0" x="0" id="text-entity-ClientProfile-4191ae72-4234-4591-b3e5-84980c90917f-attr-3-name" class="er entityLabel">avatar</text><rect height="22" width="22.68768310546875" y="68" x="83.67333984375" class="er attributeBoxOdd"/><text style="dominant-baseline: middle; font-size: 10.2px;" transform="translate(88.67333984375,79)" y="0" x="0" id="text-entity-ClientProfile-4191ae72-4234-4591-b3e5-84980c90917f-attr-3-key" class="er entityLabel"/><rect height="22" width="47.21253967285156" y="68" x="106.36102294921875" class="er attributeBoxOdd"/><text style="dominant-baseline: middle; font-size: 10.2px;" transform="translate(111.36102294921875,79)" y="0" x="0" id="text-entity-ClientProfile-4191ae72-4234-4591-b3e5-84980c90917f-attr-3-comment" class="er entityLabel">nullable</text></g><g transform="translate(273.5735626220703,488 )" id="entity-SellerProfile-080c8b66-e465-4049-9f1b-2825b47c768f"><rect height="90" width="153.5735626220703" y="0" x="0" class="er entityBox"/><text style="dominant-baseline: middle; text-anchor: middle; font-size: 12px;" transform="translate(76.78678131103516,12)" y="0" x="0" id="text-entity-SellerProfile-080c8b66-e465-4049-9f1b-2825b47c768f" class="er entityLabel">SellerProfile</text><rect height="22" width="37.39605712890625" y="24" x="0" class="er attributeBoxOdd"/><text style="dominant-baseline: middle; font-size: 10.2px;" transform="translate(5,35)" y="0" x="0" id="text-entity-SellerProfile-080c8b66-e465-4049-9f1b-2825b47c768f-attr-1-type" class="er entityLabel">String</text><rect height="22" width="46.27728271484375" y="24" x="37.39605712890625" class="er attributeBoxOdd"/><text style="dominant-baseline: middle; font-size: 10.2px;" transform="translate(42.39605712890625,35)" y="0" x="0" id="text-entity-SellerProfile-080c8b66-e465-4049-9f1b-2825b47c768f-attr-1-name" class="er entityLabel">id</text><rect height="22" width="22.68768310546875" y="24" x="83.67333984375" class="er attributeBoxOdd"/><text style="dominant-baseline: middle; font-size: 10.2px;" transform="translate(88.67333984375,35)" y="0" x="0" id="text-entity-SellerProfile-080c8b66-e465-4049-9f1b-2825b47c768f-attr-1-key" class="er entityLabel">PK</text><rect height="22" width="47.21253967285156" y="24" x="106.36102294921875" class="er attributeBoxOdd"/><text style="dominant-baseline: middle; font-size: 10.2px;" transform="translate(111.36102294921875,35)" y="0" x="0" id="text-entity-SellerProfile-080c8b66-e465-4049-9f1b-2825b47c768f-attr-1-comment" class="er entityLabel"/><rect height="22" width="37.39605712890625" y="46" x="0" class="er attributeBoxEven"/><text style="dominant-baseline: middle; font-size: 10.2px;" transform="translate(5,57)" y="0" x="0" id="text-entity-SellerProfile-080c8b66-e465-4049-9f1b-2825b47c768f-attr-2-type" class="er entityLabel">String</text><rect height="22" width="46.27728271484375" y="46" x="37.39605712890625" class="er attributeBoxEven"/><text style="dominant-baseline: middle; font-size: 10.2px;" transform="translate(42.39605712890625,57)" y="0" x="0" id="text-entity-SellerProfile-080c8b66-e465-4049-9f1b-2825b47c768f-attr-2-name" class="er entityLabel">content</text><rect height="22" width="22.68768310546875" y="46" x="83.67333984375" class="er attributeBoxEven"/><text style="dominant-baseline: middle; font-size: 10.2px;" transform="translate(88.67333984375,57)" y="0" x="0" id="text-entity-SellerProfile-080c8b66-e465-4049-9f1b-2825b47c768f-attr-2-key" class="er entityLabel"/><rect height="22" width="47.21253967285156" y="46" x="106.36102294921875" class="er attributeBoxEven"/><text style="dominant-baseline: middle; font-size: 10.2px;" transform="translate(111.36102294921875,57)" y="0" x="0" id="text-entity-SellerProfile-080c8b66-e465-4049-9f1b-2825b47c768f-attr-2-comment" class="er entityLabel">nullable</text><rect height="22" width="37.39605712890625" y="68" x="0" class="er attributeBoxOdd"/><text style="dominant-baseline: middle; font-size: 10.2px;" transform="translate(5,79)" y="0" x="0" id="text-entity-SellerProfile-080c8b66-e465-4049-9f1b-2825b47c768f-attr-3-type" class="er entityLabel">Json</text><rect height="22" width="46.27728271484375" y="68" x="37.39605712890625" class="er attributeBoxOdd"/><text style="dominant-baseline: middle; font-size: 10.2px;" transform="translate(42.39605712890625,79)" y="0" x="0" id="text-entity-SellerProfile-080c8b66-e465-4049-9f1b-2825b47c768f-attr-3-name" class="er entityLabel">avatar</text><rect height="22" width="22.68768310546875" y="68" x="83.67333984375" class="er attributeBoxOdd"/><text style="dominant-baseline: middle; font-size: 10.2px;" transform="translate(88.67333984375,79)" y="0" x="0" id="text-entity-SellerProfile-080c8b66-e465-4049-9f1b-2825b47c768f-attr-3-key" class="er entityLabel"/><rect height="22" width="47.21253967285156" y="68" x="106.36102294921875" class="er attributeBoxOdd"/><text style="dominant-baseline: middle; font-size: 10.2px;" transform="translate(111.36102294921875,79)" y="0" x="0" id="text-entity-SellerProfile-080c8b66-e465-4049-9f1b-2825b47c768f-attr-3-comment" class="er entityLabel">nullable</text></g><g transform="translate(453.2027244567871,210 )" id="entity-Order-4717aea2-6857-424f-84cf-19c8d1e570ce"><rect height="178" width="135.38717651367188" y="0" x="0" class="er entityBox"/><text style="dominant-baseline: middle; text-anchor: middle; font-size: 12px;" transform="translate(67.69358825683594,12)" y="0" x="0" id="text-entity-Order-4717aea2-6857-424f-84cf-19c8d1e570ce" class="er entityLabel">Order</text><rect height="22" width="54.095550537109375" y="24" x="0" class="er attributeBoxOdd"/><text style="dominant-baseline: middle; font-size: 10.2px;" transform="translate(5,35)" y="0" x="0" id="text-entity-Order-4717aea2-6857-424f-84cf-19c8d1e570ce-attr-1-type" class="er entityLabel">Int</text><rect height="22" width="58.60394287109375" y="24" x="54.095550537109375" class="er attributeBoxOdd"/><text style="dominant-baseline: middle; font-size: 10.2px;" transform="translate(59.095550537109375,35)" y="0" x="0" id="text-entity-Order-4717aea2-6857-424f-84cf-19c8d1e570ce-attr-1-name" class="er entityLabel">number</text><rect height="22" width="22.68768310546875" y="24" x="112.69949340820312" class="er attributeBoxOdd"/><text style="dominant-baseline: middle; font-size: 10.2px;" transform="translate(117.69949340820312,35)" y="0" x="0" id="text-entity-Order-4717aea2-6857-424f-84cf-19c8d1e570ce-attr-1-key" class="er entityLabel"/><rect height="22" width="54.095550537109375" y="46" x="0" class="er attributeBoxEven"/><text style="dominant-baseline: middle; font-size: 10.2px;" transform="translate(5,57)" y="0" x="0" id="text-entity-Order-4717aea2-6857-424f-84cf-19c8d1e570ce-attr-2-type" class="er entityLabel">String</text><rect height="22" width="58.60394287109375" y="46" x="54.095550537109375" class="er attributeBoxEven"/><text style="dominant-baseline: middle; font-size: 10.2px;" transform="translate(59.095550537109375,57)" y="0" x="0" id="text-entity-Order-4717aea2-6857-424f-84cf-19c8d1e570ce-attr-2-name" class="er entityLabel">id</text><rect height="22" width="22.68768310546875" y="46" x="112.69949340820312" class="er attributeBoxEven"/><text style="dominant-baseline: middle; font-size: 10.2px;" transform="translate(117.69949340820312,57)" y="0" x="0" id="text-entity-Order-4717aea2-6857-424f-84cf-19c8d1e570ce-attr-2-key" class="er entityLabel">PK</text><rect height="22" width="54.095550537109375" y="68" x="0" class="er attributeBoxOdd"/><text style="dominant-baseline: middle; font-size: 10.2px;" transform="translate(5,79)" y="0" x="0" id="text-entity-Order-4717aea2-6857-424f-84cf-19c8d1e570ce-attr-3-type" class="er entityLabel">String</text><rect height="22" width="58.60394287109375" y="68" x="54.095550537109375" class="er attributeBoxOdd"/><text style="dominant-baseline: middle; font-size: 10.2px;" transform="translate(59.095550537109375,79)" y="0" x="0" id="text-entity-Order-4717aea2-6857-424f-84cf-19c8d1e570ce-attr-3-name" class="er entityLabel">title</text><rect height="22" width="22.68768310546875" y="68" x="112.69949340820312" class="er attributeBoxOdd"/><text style="dominant-baseline: middle; font-size: 10.2px;" transform="translate(117.69949340820312,79)" y="0" x="0" id="text-entity-Order-4717aea2-6857-424f-84cf-19c8d1e570ce-attr-3-key" class="er entityLabel"/><rect height="22" width="54.095550537109375" y="90" x="0" class="er attributeBoxEven"/><text style="dominant-baseline: middle; font-size: 10.2px;" transform="translate(5,101)" y="0" x="0" id="text-entity-Order-4717aea2-6857-424f-84cf-19c8d1e570ce-attr-4-type" class="er entityLabel">String</text><rect height="22" width="58.60394287109375" y="90" x="54.095550537109375" class="er attributeBoxEven"/><text style="dominant-baseline: middle; font-size: 10.2px;" transform="translate(59.095550537109375,101)" y="0" x="0" id="text-entity-Order-4717aea2-6857-424f-84cf-19c8d1e570ce-attr-4-name" class="er entityLabel">content</text><rect height="22" width="22.68768310546875" y="90" x="112.69949340820312" class="er attributeBoxEven"/><text style="dominant-baseline: middle; font-size: 10.2px;" transform="translate(117.69949340820312,101)" y="0" x="0" id="text-entity-Order-4717aea2-6857-424f-84cf-19c8d1e570ce-attr-4-key" class="er entityLabel"/><rect height="22" width="54.095550537109375" y="112" x="0" class="er attributeBoxOdd"/><text style="dominant-baseline: middle; font-size: 10.2px;" transform="translate(5,123)" y="0" x="0" id="text-entity-Order-4717aea2-6857-424f-84cf-19c8d1e570ce-attr-5-type" class="er entityLabel">Float</text><rect height="22" width="58.60394287109375" y="112" x="54.095550537109375" class="er attributeBoxOdd"/><text style="dominant-baseline: middle; font-size: 10.2px;" transform="translate(59.095550537109375,123)" y="0" x="0" id="text-entity-Order-4717aea2-6857-424f-84cf-19c8d1e570ce-attr-5-name" class="er entityLabel">price</text><rect height="22" width="22.68768310546875" y="112" x="112.69949340820312" class="er attributeBoxOdd"/><text style="dominant-baseline: middle; font-size: 10.2px;" transform="translate(117.69949340820312,123)" y="0" x="0" id="text-entity-Order-4717aea2-6857-424f-84cf-19c8d1e570ce-attr-5-key" class="er entityLabel"/><rect height="22" width="54.095550537109375" y="134" x="0" class="er attributeBoxEven"/><text style="dominant-baseline: middle; font-size: 10.2px;" transform="translate(5,145)" y="0" x="0" id="text-entity-Order-4717aea2-6857-424f-84cf-19c8d1e570ce-attr-6-type" class="er entityLabel">DateTime</text><rect height="22" width="58.60394287109375" y="134" x="54.095550537109375" class="er attributeBoxEven"/><text style="dominant-baseline: middle; font-size: 10.2px;" transform="translate(59.095550537109375,145)" y="0" x="0" id="text-entity-Order-4717aea2-6857-424f-84cf-19c8d1e570ce-attr-6-name" class="er entityLabel">createdAt</text><rect height="22" width="22.68768310546875" y="134" x="112.69949340820312" class="er attributeBoxEven"/><text style="dominant-baseline: middle; font-size: 10.2px;" transform="translate(117.69949340820312,145)" y="0" x="0" id="text-entity-Order-4717aea2-6857-424f-84cf-19c8d1e570ce-attr-6-key" class="er entityLabel"/><rect height="22" width="54.095550537109375" y="156" x="0" class="er attributeBoxOdd"/><text style="dominant-baseline: middle; font-size: 10.2px;" transform="translate(5,167)" y="0" x="0" id="text-entity-Order-4717aea2-6857-424f-84cf-19c8d1e570ce-attr-7-type" class="er entityLabel">DateTime</text><rect height="22" width="58.60394287109375" y="156" x="54.095550537109375" class="er attributeBoxOdd"/><text style="dominant-baseline: middle; font-size: 10.2px;" transform="translate(59.095550537109375,167)" y="0" x="0" id="text-entity-Order-4717aea2-6857-424f-84cf-19c8d1e570ce-attr-7-name" class="er entityLabel">updatedAt</text><rect height="22" width="22.68768310546875" y="156" x="112.69949340820312" class="er attributeBoxOdd"/><text style="dominant-baseline: middle; font-size: 10.2px;" transform="translate(117.69949340820312,167)" y="0" x="0" id="text-entity-Order-4717aea2-6857-424f-84cf-19c8d1e570ce-attr-7-key" class="er entityLabel"/></g><g transform="translate(554.5113830566406,678 )" id="entity-OrderCategory-5f357839-0630-41be-8bac-969c266d03cb"><rect height="90" width="109.556640625" y="0" x="0" class="er entityBox"/><text style="dominant-baseline: middle; text-anchor: middle; font-size: 12px;" transform="translate(54.7783203125,12)" y="0" x="0" id="text-entity-OrderCategory-5f357839-0630-41be-8bac-969c266d03cb" class="er entityLabel">OrderCategory</text><rect height="22" width="42.08738708496094" y="24" x="0" class="er attributeBoxOdd"/><text style="dominant-baseline: middle; font-size: 10.2px;" transform="translate(5,35)" y="0" x="0" id="text-entity-OrderCategory-5f357839-0630-41be-8bac-969c266d03cb-attr-1-type" class="er entityLabel">String</text><rect height="22" width="40.090240478515625" y="24" x="42.08738708496094" class="er attributeBoxOdd"/><text style="dominant-baseline: middle; font-size: 10.2px;" transform="translate(47.08738708496094,35)" y="0" x="0" id="text-entity-OrderCategory-5f357839-0630-41be-8bac-969c266d03cb-attr-1-name" class="er entityLabel">id</text><rect height="22" width="27.379013061523438" y="24" x="82.17762756347656" class="er attributeBoxOdd"/><text style="dominant-baseline: middle; font-size: 10.2px;" transform="translate(87.17762756347656,35)" y="0" x="0" id="text-entity-OrderCategory-5f357839-0630-41be-8bac-969c266d03cb-attr-1-key" class="er entityLabel">PK</text><rect height="22" width="42.08738708496094" y="46" x="0" class="er attributeBoxEven"/><text style="dominant-baseline: middle; font-size: 10.2px;" transform="translate(5,57)" y="0" x="0" id="text-entity-OrderCategory-5f357839-0630-41be-8bac-969c266d03cb-attr-2-type" class="er entityLabel">String</text><rect height="22" width="40.090240478515625" y="46" x="42.08738708496094" class="er attributeBoxEven"/><text style="dominant-baseline: middle; font-size: 10.2px;" transform="translate(47.08738708496094,57)" y="0" x="0" id="text-entity-OrderCategory-5f357839-0630-41be-8bac-969c266d03cb-attr-2-name" class="er entityLabel">name</text><rect height="22" width="27.379013061523438" y="46" x="82.17762756347656" class="er attributeBoxEven"/><text style="dominant-baseline: middle; font-size: 10.2px;" transform="translate(87.17762756347656,57)" y="0" x="0" id="text-entity-OrderCategory-5f357839-0630-41be-8bac-969c266d03cb-attr-2-key" class="er entityLabel"/><rect height="22" width="42.08738708496094" y="68" x="0" class="er attributeBoxOdd"/><text style="dominant-baseline: middle; font-size: 10.2px;" transform="translate(5,79)" y="0" x="0" id="text-entity-OrderCategory-5f357839-0630-41be-8bac-969c266d03cb-attr-3-type" class="er entityLabel">String</text><rect height="22" width="40.090240478515625" y="68" x="42.08738708496094" class="er attributeBoxOdd"/><text style="dominant-baseline: middle; font-size: 10.2px;" transform="translate(47.08738708496094,79)" y="0" x="0" id="text-entity-OrderCategory-5f357839-0630-41be-8bac-969c266d03cb-attr-3-name" class="er entityLabel">slug</text><rect height="22" width="27.379013061523438" y="68" x="82.17762756347656" class="er attributeBoxOdd"/><text style="dominant-baseline: middle; font-size: 10.2px;" transform="translate(87.17762756347656,79)" y="0" x="0" id="text-entity-OrderCategory-5f357839-0630-41be-8bac-969c266d03cb-attr-3-key" class="er entityLabel"/></g><g transform="translate(627.1471252441406,488 )" id="entity-OrderSubCategory-b96ea6ee-5627-4793-8916-a045e39fa186"><rect height="90" width="128.5703125" y="0" x="0" class="er entityBox"/><text style="dominant-baseline: middle; text-anchor: middle; font-size: 12px;" transform="translate(64.28515625,12)" y="0" x="0" id="text-entity-OrderSubCategory-b96ea6ee-5627-4793-8916-a045e39fa186" class="er entityLabel">OrderSubCategory</text><rect height="22" width="48.42527770996094" y="24" x="0" class="er attributeBoxOdd"/><text style="dominant-baseline: middle; font-size: 10.2px;" transform="translate(5,35)" y="0" x="0" id="text-entity-OrderSubCategory-b96ea6ee-5627-4793-8916-a045e39fa186-attr-1-type" class="er entityLabel">String</text><rect height="22" width="46.428131103515625" y="24" x="48.42527770996094" class="er attributeBoxOdd"/><text style="dominant-baseline: middle; font-size: 10.2px;" transform="translate(53.42527770996094,35)" y="0" x="0" id="text-entity-OrderSubCategory-b96ea6ee-5627-4793-8916-a045e39fa186-attr-1-name" class="er entityLabel">id</text><rect height="22" width="33.71690368652344" y="24" x="94.85340881347656" class="er attributeBoxOdd"/><text style="dominant-baseline: middle; font-size: 10.2px;" transform="translate(99.85340881347656,35)" y="0" x="0" id="text-entity-OrderSubCategory-b96ea6ee-5627-4793-8916-a045e39fa186-attr-1-key" class="er entityLabel">PK</text><rect height="22" width="48.42527770996094" y="46" x="0" class="er attributeBoxEven"/><text style="dominant-baseline: middle; font-size: 10.2px;" transform="translate(5,57)" y="0" x="0" id="text-entity-OrderSubCategory-b96ea6ee-5627-4793-8916-a045e39fa186-attr-2-type" class="er entityLabel">String</text><rect height="22" width="46.428131103515625" y="46" x="48.42527770996094" class="er attributeBoxEven"/><text style="dominant-baseline: middle; font-size: 10.2px;" transform="translate(53.42527770996094,57)" y="0" x="0" id="text-entity-OrderSubCategory-b96ea6ee-5627-4793-8916-a045e39fa186-attr-2-name" class="er entityLabel">name</text><rect height="22" width="33.71690368652344" y="46" x="94.85340881347656" class="er attributeBoxEven"/><text style="dominant-baseline: middle; font-size: 10.2px;" transform="translate(99.85340881347656,57)" y="0" x="0" id="text-entity-OrderSubCategory-b96ea6ee-5627-4793-8916-a045e39fa186-attr-2-key" class="er entityLabel"/><rect height="22" width="48.42527770996094" y="68" x="0" class="er attributeBoxOdd"/><text style="dominant-baseline: middle; font-size: 10.2px;" transform="translate(5,79)" y="0" x="0" id="text-entity-OrderSubCategory-b96ea6ee-5627-4793-8916-a045e39fa186-attr-3-type" class="er entityLabel">String</text><rect height="22" width="46.428131103515625" y="68" x="48.42527770996094" class="er attributeBoxOdd"/><text style="dominant-baseline: middle; font-size: 10.2px;" transform="translate(53.42527770996094,79)" y="0" x="0" id="text-entity-OrderSubCategory-b96ea6ee-5627-4793-8916-a045e39fa186-attr-3-name" class="er entityLabel">slug</text><rect height="22" width="33.71690368652344" y="68" x="94.85340881347656" class="er attributeBoxOdd"/><text style="dominant-baseline: middle; font-size: 10.2px;" transform="translate(99.85340881347656,79)" y="0" x="0" id="text-entity-OrderSubCategory-b96ea6ee-5627-4793-8916-a045e39fa186-attr-3-key" class="er entityLabel"/></g><g transform="translate(28.12320327758789,20 )" id="entity-OrderTag-2c1b2cfc-20e1-457a-981f-1f5d71ad1ff0"><rect height="90" width="100" y="0" x="0" class="er entityBox"/><text style="dominant-baseline: middle; text-anchor: middle; font-size: 12px;" transform="translate(50,12)" y="0" x="0" id="text-entity-OrderTag-2c1b2cfc-20e1-457a-981f-1f5d71ad1ff0" class="er entityLabel">OrderTag</text><rect height="22" width="38.90184020996094" y="24" x="0" class="er attributeBoxOdd"/><text style="dominant-baseline: middle; font-size: 10.2px;" transform="translate(5,35)" y="0" x="0" id="text-entity-OrderTag-2c1b2cfc-20e1-457a-981f-1f5d71ad1ff0-attr-1-type" class="er entityLabel">String</text><rect height="22" width="36.904693603515625" y="24" x="38.90184020996094" class="er attributeBoxOdd"/><text style="dominant-baseline: middle; font-size: 10.2px;" transform="translate(43.90184020996094,35)" y="0" x="0" id="text-entity-OrderTag-2c1b2cfc-20e1-457a-981f-1f5d71ad1ff0-attr-1-name" class="er entityLabel">id</text><rect height="22" width="24.193466186523438" y="24" x="75.80653381347656" class="er attributeBoxOdd"/><text style="dominant-baseline: middle; font-size: 10.2px;" transform="translate(80.80653381347656,35)" y="0" x="0" id="text-entity-OrderTag-2c1b2cfc-20e1-457a-981f-1f5d71ad1ff0-attr-1-key" class="er entityLabel">PK</text><rect height="22" width="38.90184020996094" y="46" x="0" class="er attributeBoxEven"/><text style="dominant-baseline: middle; font-size: 10.2px;" transform="translate(5,57)" y="0" x="0" id="text-entity-OrderTag-2c1b2cfc-20e1-457a-981f-1f5d71ad1ff0-attr-2-type" class="er entityLabel">String</text><rect height="22" width="36.904693603515625" y="46" x="38.90184020996094" class="er attributeBoxEven"/><text style="dominant-baseline: middle; font-size: 10.2px;" transform="translate(43.90184020996094,57)" y="0" x="0" id="text-entity-OrderTag-2c1b2cfc-20e1-457a-981f-1f5d71ad1ff0-attr-2-name" class="er entityLabel">name</text><rect height="22" width="24.193466186523438" y="46" x="75.80653381347656" class="er attributeBoxEven"/><text style="dominant-baseline: middle; font-size: 10.2px;" transform="translate(80.80653381347656,57)" y="0" x="0" id="text-entity-OrderTag-2c1b2cfc-20e1-457a-981f-1f5d71ad1ff0-attr-2-key" class="er entityLabel"/><rect height="22" width="38.90184020996094" y="68" x="0" class="er attributeBoxOdd"/><text style="dominant-baseline: middle; font-size: 10.2px;" transform="translate(5,79)" y="0" x="0" id="text-entity-OrderTag-2c1b2cfc-20e1-457a-981f-1f5d71ad1ff0-attr-3-type" class="er entityLabel">String</text><rect height="22" width="36.904693603515625" y="68" x="38.90184020996094" class="er attributeBoxOdd"/><text style="dominant-baseline: middle; font-size: 10.2px;" transform="translate(43.90184020996094,79)" y="0" x="0" id="text-entity-OrderTag-2c1b2cfc-20e1-457a-981f-1f5d71ad1ff0-attr-3-name" class="er entityLabel">slug</text><rect height="22" width="24.193466186523438" y="68" x="75.80653381347656" class="er attributeBoxOdd"/><text style="dominant-baseline: middle; font-size: 10.2px;" transform="translate(80.80653381347656,79)" y="0" x="0" id="text-entity-OrderTag-2c1b2cfc-20e1-457a-981f-1f5d71ad1ff0-attr-3-key" class="er entityLabel"/></g><g transform="translate(228.1232032775879,20 )" id="entity-OrderClientResponse-78dd6adb-3cd6-4bf8-8674-5e2d94a4d1f1"><rect height="90" width="167.6875" y="0" x="0" class="er entityBox"/><text style="dominant-baseline: middle; text-anchor: middle; font-size: 12px;" transform="translate(83.84375,12)" y="0" x="0" id="text-entity-OrderClientResponse-78dd6adb-3cd6-4bf8-8674-5e2d94a4d1f1" class="er entityLabel">OrderClientResponse</text><rect height="22" width="57.83821614583333" y="24" x="0" class="er attributeBoxOdd"/><text style="dominant-baseline: middle; font-size: 10.2px;" transform="translate(5,35)" y="0" x="0" id="text-entity-OrderClientResponse-78dd6adb-3cd6-4bf8-8674-5e2d94a4d1f1-attr-1-type" class="er entityLabel">String</text><rect height="22" width="66.71944173177083" y="24" x="57.83821614583333" class="er attributeBoxOdd"/><text style="dominant-baseline: middle; font-size: 10.2px;" transform="translate(62.83821614583333,35)" y="0" x="0" id="text-entity-OrderClientResponse-78dd6adb-3cd6-4bf8-8674-5e2d94a4d1f1-attr-1-name" class="er entityLabel">id</text><rect height="22" width="43.12984212239583" y="24" x="124.55765787760416" class="er attributeBoxOdd"/><text style="dominant-baseline: middle; font-size: 10.2px;" transform="translate(129.55765787760416,35)" y="0" x="0" id="text-entity-OrderClientResponse-78dd6adb-3cd6-4bf8-8674-5e2d94a4d1f1-attr-1-key" class="er entityLabel">PK</text><rect height="22" width="57.83821614583333" y="46" x="0" class="er attributeBoxEven"/><text style="dominant-baseline: middle; font-size: 10.2px;" transform="translate(5,57)" y="0" x="0" id="text-entity-OrderClientResponse-78dd6adb-3cd6-4bf8-8674-5e2d94a4d1f1-attr-2-type" class="er entityLabel">String</text><rect height="22" width="66.71944173177083" y="46" x="57.83821614583333" class="er attributeBoxEven"/><text style="dominant-baseline: middle; font-size: 10.2px;" transform="translate(62.83821614583333,57)" y="0" x="0" id="text-entity-OrderClientResponse-78dd6adb-3cd6-4bf8-8674-5e2d94a4d1f1-attr-2-name" class="er entityLabel">content</text><rect height="22" width="43.12984212239583" y="46" x="124.55765787760416" class="er attributeBoxEven"/><text style="dominant-baseline: middle; font-size: 10.2px;" transform="translate(129.55765787760416,57)" y="0" x="0" id="text-entity-OrderClientResponse-78dd6adb-3cd6-4bf8-8674-5e2d94a4d1f1-attr-2-key" class="er entityLabel"/><rect height="22" width="57.83821614583333" y="68" x="0" class="er attributeBoxOdd"/><text style="dominant-baseline: middle; font-size: 10.2px;" transform="translate(5,79)" y="0" x="0" id="text-entity-OrderClientResponse-78dd6adb-3cd6-4bf8-8674-5e2d94a4d1f1-attr-3-type" class="er entityLabel">Float</text><rect height="22" width="66.71944173177083" y="68" x="57.83821614583333" class="er attributeBoxOdd"/><text style="dominant-baseline: middle; font-size: 10.2px;" transform="translate(62.83821614583333,79)" y="0" x="0" id="text-entity-OrderClientResponse-78dd6adb-3cd6-4bf8-8674-5e2d94a4d1f1-attr-3-name" class="er entityLabel">price</text><rect height="22" width="43.12984212239583" y="68" x="124.55765787760416" class="er attributeBoxOdd"/><text style="dominant-baseline: middle; font-size: 10.2px;" transform="translate(129.55765787760416,79)" y="0" x="0" id="text-entity-OrderClientResponse-78dd6adb-3cd6-4bf8-8674-5e2d94a4d1f1-attr-3-key" class="er entityLabel"/></g><rect height="14" width="23.958984375" y="800" x="211.5940704345703" class="er relationshipLabelBox"/><text style="text-anchor: middle; dominant-baseline: middle; font-size: 12px;" y="807" x="223.5735626220703" id="rel1" class="er relationshipLabel">user</text><rect height="14" width="36.185546875" y="642.1822509765625" x="111.13789367675781" class="er relationshipLabelBox"/><text style="text-anchor: middle; dominant-baseline: middle; font-size: 12px;" y="649.1822509765625" x="129.2306671142578" id="rel2" class="er relationshipLabel">profile</text><rect height="14" width="36.185546875" y="642.1820068359375" x="299.823486328125" class="er relationshipLabelBox"/><text style="text-anchor: middle; dominant-baseline: middle; font-size: 12px;" y="649.1820068359375" x="317.916259765625" id="rel3" class="er relationshipLabel">profile</text><rect height="14" width="85.3515625" y="404.4430847167969" x="343.8046875" class="er relationshipLabelBox"/><text style="text-anchor: middle; dominant-baseline: middle; font-size: 12px;" y="411.4430847167969" x="386.48046875" id="rel4" class="er relationshipLabel">sellerProfile</text><rect height="14" width="47.67578125" y="531.7632446289062" x="503.3109130859375" class="er relationshipLabelBox"/><text style="text-anchor: middle; dominant-baseline: middle; font-size: 12px;" y="538.7632446289062" x="527.1488037109375" id="rel5" class="er relationshipLabel">category</text><rect height="14" width="73.7421875" y="404.44305419921875" x="618.4411010742188" class="er relationshipLabelBox"/><text style="text-anchor: middle; dominant-baseline: middle; font-size: 12px;" y="411.44305419921875" x="655.3121948242188" id="rel6" class="er relationshipLabel">subcategories</text><rect height="14" width="79.556640625" y="625.9419555664062" x="642.1104125976562" class="er relationshipLabelBox"/><text style="text-anchor: middle; dominant-baseline: middle; font-size: 12px;" y="632.9419555664062" x="681.8887329101562" id="rel7" class="er relationshipLabel">OrderCategory</text><rect height="14" width="57.076171875" y="255.60879516601562" x="68.64977264404297" class="er relationshipLabelBox"/><text style="text-anchor: middle; dominant-baseline: middle; font-size: 12px;" y="262.6087951660156" x="97.18785858154297" id="rel8" class="er relationshipLabel">client</text><rect height="14" width="30.333984375" y="134.74472045898438" x="459.8210754394531" class="er relationshipLabelBox"/><text style="text-anchor: middle; dominant-baseline: middle; font-size: 12px;" y="141.74472045898438" x="474.9880676269531" id="rel9" class="er relationshipLabel">order</text></svg>